<svg xmlns="http://www.w3.org/2000/svg" width="1600" height="1000" viewBox="0 0 1600 1000" role="img" aria-labelledby="title desc">
  <title id="title">HelioCoreOS operating system blueprint</title>
  <desc id="desc">Solar EPC lifecycle, launch boundary, navigation, universal states, document lifecycle and approvals.</desc>
  <style>
    .bg{fill:#fbfcfe}.panel{fill:#fff;stroke:#d9e0ea;stroke-width:1.5}.launch{fill:#f3faf4;stroke:#77b684}.future{fill:#f4f7fd;stroke:#7c9fda}.ink{fill:#102038;font-family:Arial,sans-serif}.muted{fill:#5d6b7f;font-family:Arial,sans-serif}.h1{font-size:34px;font-weight:700}.h2{font-size:18px;font-weight:700}.h3{font-size:14px;font-weight:700}.body{font-size:12px}.small{font-size:10px}.green{fill:#26743b}.blue{fill:#315fc4}.line{stroke:#718096;stroke-width:1.5;fill:none}.dash{stroke:#718096;stroke-width:1.5;stroke-dasharray:6 5;fill:none}.accent{fill:#f4a300}.nav{fill:#112846}.navtext{fill:#fff;font-family:Arial,sans-serif}.active{fill:#245fd7}.chip{fill:#edf3ff;stroke:#b5c8f4}.ok{fill:#eaf7ed;stroke:#8bc69a}.warn{fill:#fff6df;stroke:#e5b856}
  </style>
  <rect class="bg" width="1600" height="1000"/>
  <text x="28" y="45" class="ink h1">HelioCoreOS — Operating System for Solar EPC</text>
  <text x="28" y="72" class="muted h2">End-to-End Lifecycle, Governance, Documents, Approvals &amp; States</text>
  <text x="1120" y="45" class="ink h3">One Platform · One Data Model · One Lifecycle · Full Governance</text>
  <circle cx="1510" cy="40" r="20" class="accent"/><text x="1540" y="48" class="ink h2">HelioCoreOS</text>

  <rect x="20" y="95" width="740" height="32" rx="4" class="launch"/><text x="390" y="116" text-anchor="middle" class="green h3">LAUNCH V1 — COMMERCIAL FOUNDATION</text>
  <rect x="770" y="95" width="810" height="32" rx="4" class="future"/><text x="1175" y="116" text-anchor="middle" class="blue h3">FUTURE — DELIVERY &amp; OPERATIONS</text>

  <g transform="translate(20 145)">
    <g>
      <rect width="120" height="150" rx="6" class="launch"/><circle cx="18" cy="18" r="11" fill="#3a9a55"/><text x="18" y="22" text-anchor="middle" class="navtext small">1</text><text x="60" y="25" text-anchor="middle" class="ink h3">Enquiry / Lead</text><text x="60" y="63" text-anchor="middle" class="muted body">Capture demand</text><text x="60" y="80" text-anchor="middle" class="muted body">from any source</text><text x="60" y="132" text-anchor="middle" class="green small">IN SCOPE</text>
    </g>
    <g transform="translate(130)"><rect width="120" height="150" rx="6" class="launch"/><circle cx="18" cy="18" r="11" fill="#3a9a55"/><text x="18" y="22" text-anchor="middle" class="navtext small">2</text><text x="65" y="25" text-anchor="middle" class="ink h3">Opportunity</text><text x="60" y="63" text-anchor="middle" class="muted body">Qualify demand</text><text x="60" y="80" text-anchor="middle" class="muted body">and value</text><text x="60" y="132" text-anchor="middle" class="green small">IN SCOPE</text></g>
    <g transform="translate(260)"><rect width="120" height="150" rx="6" class="launch"/><circle cx="18" cy="18" r="11" fill="#3a9a55"/><text x="18" y="22" text-anchor="middle" class="navtext small">3</text><text x="65" y="25" text-anchor="middle" class="ink h3">Customer</text><text x="60" y="63" text-anchor="middle" class="muted body">Identify or create</text><text x="60" y="80" text-anchor="middle" class="muted body">assign later allowed</text><text x="60" y="132" text-anchor="middle" class="green small">IN SCOPE</text></g>
    <g transform="translate(390)"><rect width="120" height="150" rx="6" class="launch"/><circle cx="18" cy="18" r="11" fill="#3a9a55"/><text x="18" y="22" text-anchor="middle" class="navtext small">4</text><text x="65" y="25" text-anchor="middle" class="ink h3">Site</text><text x="60" y="63" text-anchor="middle" class="muted body">Identify location</text><text x="60" y="80" text-anchor="middle" class="muted body">assign later allowed</text><text x="60" y="132" text-anchor="middle" class="green small">IN SCOPE</text></g>
    <g transform="translate(520)"><rect width="120" height="150" rx="6" class="launch"/><circle cx="18" cy="18" r="11" fill="#3a9a55"/><text x="18" y="22" text-anchor="middle" class="navtext small">5</text><text x="65" y="22" text-anchor="middle" class="ink h3">Customer</text><text x="65" y="39" text-anchor="middle" class="ink h3">Readiness</text><text x="60" y="76" text-anchor="middle" class="muted body">Evidence and</text><text x="60" y="93" text-anchor="middle" class="muted body">information checks</text><text x="60" y="132" text-anchor="middle" class="green small">IN SCOPE</text></g>
    <g transform="translate(650)"><rect width="120" height="150" rx="6" class="launch"/><circle cx="18" cy="18" r="11" fill="#3a9a55"/><text x="18" y="22" text-anchor="middle" class="navtext small">6</text><text x="65" y="22" text-anchor="middle" class="ink h3">Indicative</text><text x="65" y="39" text-anchor="middle" class="ink h3">Proposal</text><text x="60" y="76" text-anchor="middle" class="muted body">Concept and</text><text x="60" y="93" text-anchor="middle" class="muted body">commercials</text><text x="60" y="132" text-anchor="middle" class="green small">IN SCOPE</text></g>
    <g transform="translate(780)"><rect width="120" height="150" rx="6" class="future"/><circle cx="18" cy="18" r="11" fill="#315fc4"/><text x="18" y="22" text-anchor="middle" class="navtext small">7</text><text x="65" y="25" text-anchor="middle" class="ink h3">Quote</text><text x="60" y="70" text-anchor="middle" class="muted body">Detailed technical</text><text x="60" y="87" text-anchor="middle" class="muted body">and commercial</text><text x="60" y="132" text-anchor="middle" class="blue small">FUTURE</text></g>
    <g transform="translate(910)"><rect width="120" height="150" rx="6" class="future"/><circle cx="18" cy="18" r="11" fill="#315fc4"/><text x="18" y="22" text-anchor="middle" class="navtext small">8</text><text x="65" y="25" text-anchor="middle" class="ink h3">Contract</text><text x="60" y="70" text-anchor="middle" class="muted body">Customer accepts</text><text x="60" y="87" text-anchor="middle" class="muted body">signed scope</text><text x="60" y="132" text-anchor="middle" class="blue small">FUTURE</text></g>
    <g transform="translate(1040)"><rect width="120" height="150" rx="6" class="future"/><circle cx="18" cy="18" r="11" fill="#315fc4"/><text x="18" y="22" text-anchor="middle" class="navtext small">9</text><text x="65" y="22" text-anchor="middle" class="ink h3">Project</text><text x="65" y="39" text-anchor="middle" class="ink h3">Creation</text><text x="60" y="76" text-anchor="middle" class="muted body">Team, plan and</text><text x="60" y="93" text-anchor="middle" class="muted body">delivery control</text><text x="60" y="132" text-anchor="middle" class="blue small">FUTURE</text></g>
    <g transform="translate(1170)"><rect width="120" height="150" rx="6" class="future"/><circle cx="18" cy="18" r="11" fill="#315fc4"/><text x="18" y="22" text-anchor="middle" class="navtext small">10</text><text x="65" y="25" text-anchor="middle" class="ink h3">Delivery</text><text x="60" y="65" text-anchor="middle" class="muted body">Engineering</text><text x="60" y="82" text-anchor="middle" class="muted body">Procurement</text><text x="60" y="99" text-anchor="middle" class="muted body">Installation</text><text x="60" y="132" text-anchor="middle" class="blue small">FUTURE</text></g>
    <g transform="translate(1300)"><rect width="120" height="150" rx="6" class="future"/><circle cx="18" cy="18" r="11" fill="#315fc4"/><text x="18" y="22" text-anchor="middle" class="navtext small">11</text><text x="65" y="25" text-anchor="middle" class="ink h3">Handover</text><text x="60" y="70" text-anchor="middle" class="muted body">Completion and</text><text x="60" y="87" text-anchor="middle" class="muted body">customer transfer</text><text x="60" y="132" text-anchor="middle" class="blue small">FUTURE</text></g>
    <g transform="translate(1430)"><rect width="120" height="150" rx="6" class="future"/><circle cx="18" cy="18" r="11" fill="#315fc4"/><text x="18" y="22" text-anchor="middle" class="navtext small">12</text><text x="65" y="22" text-anchor="middle" class="ink h3">Operations</text><text x="65" y="39" text-anchor="middle" class="ink h3">&amp; O&amp;M</text><text x="60" y="76" text-anchor="middle" class="muted body">Monitoring and</text><text x="60" y="93" text-anchor="middle" class="muted body">maintenance</text><text x="60" y="132" text-anchor="middle" class="blue small">FUTURE</text></g>
    <path d="M120 75H130M250 75H260M380 75H390M510 75H520M640 75H650M770 75H780M900 75H910M1030 75H1040M1160 75H1170M1290 75H1300M1420 75H1430" class="line"/>
  </g>

  <rect x="20" y="330" width="1045" height="410" rx="8" class="panel"/><text x="35" y="356" class="ink h2">Navigation &amp; Information Architecture — Opportunity Record</text>
  <rect x="35" y="375" width="170" height="345" rx="6" class="nav"/><text x="55" y="408" class="navtext h2">☀ HelioCoreOS</text><text x="55" y="445" class="navtext small">COMMAND</text><text x="55" y="474" class="navtext body">Overview</text><text x="55" y="500" class="navtext body">Tasks</text><text x="55" y="535" class="navtext small">SALES</text><rect x="45" y="552" width="145" height="30" rx="4" class="active"/><text x="58" y="572" class="navtext body">Opportunities</text><text x="55" y="612" class="navtext body">Customers</text><text x="55" y="638" class="navtext body">Sites</text><text x="55" y="675" class="navtext small">ADMINISTRATION</text><text x="55" y="704" class="navtext body">Team &amp; Access</text>
  <rect x="225" y="375" width="820" height="42" rx="5" class="panel"/><text x="245" y="401" class="ink body">⌂ Dashboard  ›  Sales  ›  Opportunities  ›  OPP-2026-001</text>
  <text x="235" y="455" class="ink h1">OPP-2026-001</text><rect x="455" y="431" width="55" height="25" rx="12" class="chip"/><text x="482" y="448" text-anchor="middle" class="blue small">LEAD</text><text x="235" y="482" class="muted body">Warehouse Solar Assessment · Created 29 Jul 2026 · Owner: Sarah Johnson</text>
  <rect x="760" y="430" width="130" height="38" rx="4" class="panel"/><text x="825" y="454" text-anchor="middle" class="ink body">← Back to Opportunities</text><rect x="900" y="430" width="125" height="38" rx="4" class="active"/><text x="962" y="454" text-anchor="middle" class="navtext body">Edit Opportunity</text>
  <g transform="translate(235 505)"><rect width="125" height="65" rx="5" class="panel"/><text x="12" y="20" class="ink small">CUSTOMER</text><text x="12" y="41" class="muted body">Not assigned</text><text x="12" y="57" class="blue small">Assign customer</text></g>
  <g transform="translate(370 505)"><rect width="125" height="65" rx="5" class="panel"/><text x="12" y="20" class="ink small">SITE</text><text x="12" y="41" class="muted body">Not assigned</text><text x="12" y="57" class="blue small">Assign site</text></g>
  <g transform="translate(505 505)"><rect width="125" height="65" rx="5" class="panel"/><text x="12" y="20" class="ink small">CAPACITY</text><text x="12" y="45" class="ink h3">600 kW</text></g><g transform="translate(640 505)"><rect width="125" height="65" rx="5" class="panel"/><text x="12" y="20" class="ink small">VALUE</text><text x="12" y="45" class="ink h3">£720,000</text></g><g transform="translate(775 505)"><rect width="110" height="65" rx="5" class="panel"/><text x="12" y="20" class="ink small">STAGE</text><text x="12" y="45" class="ink h3">Lead</text></g><g transform="translate(895 505)"><rect width="110" height="65" rx="5" class="panel"/><text x="12" y="20" class="ink small">SOURCE</text><text x="12" y="45" class="ink h3">Website</text></g>
  <rect x="235" y="590" width="770" height="38" rx="4" class="panel"/><text x="255" y="614" class="blue body">Overview</text><text x="345" y="614" class="ink body">Customer Readiness</text><text x="505" y="614" class="ink body">Indicative Proposal</text><text x="650" y="614" class="ink body">Documents</text><text x="745" y="614" class="ink body">Approvals</text><text x="830" y="614" class="ink body">Activity</text><text x="900" y="614" class="ink body">Tasks</text>
  <rect x="235" y="645" width="300" height="75" rx="5" class="panel"/><text x="250" y="670" class="ink h3">Opportunity Details</text><text x="250" y="694" class="muted body">Reference, source, description, owner and dates.</text><rect x="545" y="645" width="220" height="75" rx="5" class="panel"/><text x="560" y="670" class="ink h3">Next Steps</text><text x="560" y="694" class="muted body">Readiness · Assign customer · Assign site</text><rect x="775" y="645" width="230" height="75" rx="5" class="panel"/><text x="790" y="670" class="ink h3">Activity</text><text x="790" y="694" class="muted body">Every transition and decision is recorded.</text>

  <rect x="1080" y="330" width="500" height="125" rx="8" class="panel"/><text x="1100" y="357" class="ink h2">Universal State Model</text><text x="1100" y="402" class="muted body">Created → Draft → Pending → In Progress → Review → Approved → Completed → Archived</text><circle cx="1115" cy="425" r="8" fill="#9aa5b1"/><circle cx="1175" cy="425" r="8" fill="#315fc4"/><circle cx="1235" cy="425" r="8" fill="#f4a300"/><circle cx="1295" cy="425" r="8" fill="#315fc4"/><circle cx="1355" cy="425" r="8" fill="#7252aa"/><circle cx="1415" cy="425" r="8" fill="#3a9a55"/><circle cx="1475" cy="425" r="8" fill="#3a9a55"/><circle cx="1535" cy="425" r="8" fill="#687582"/>
  <rect x="1080" y="470" width="500" height="130" rx="8" class="panel"/><text x="1100" y="497" class="ink h2">Universal Document Lifecycle</text><text x="1100" y="540" class="muted body">Draft → Under Review → Internal Approved → Customer Review</text><text x="1100" y="564" class="muted body">→ Customer Approved → Issued → Superseded → Archived</text>
  <rect x="1080" y="615" width="500" height="125" rx="8" class="panel"/><text x="1100" y="642" class="ink h2">Approval Engine — Proposal Route</text><text x="1100" y="680" class="muted body">Sales Manager → Technical Manager → Commercial Director → Customer</text><text x="1100" y="706" class="green body">Reviewer          Approver             Final Authority          External Approval</text>

  <rect x="20" y="760" width="300" height="170" rx="8" class="panel"/><text x="40" y="788" class="ink h2">Universal Document Engine</text><text x="40" y="820" class="muted body">Proposal · Quote · Contract</text><text x="40" y="846" class="muted body">Drawings · Calculations · Datasheets</text><text x="40" y="872" class="muted body">RAMS · Permits · Certificates</text><text x="40" y="898" class="muted body">Invoice · Purchase Order · Variation</text>
  <rect x="335" y="760" width="300" height="170" rx="8" class="panel"/><text x="355" y="788" class="ink h2">Document Metadata</text><text x="355" y="820" class="muted body">Title · Reference · Type · Template</text><text x="355" y="846" class="muted body">Related object · Owner · Approval route</text><text x="355" y="872" class="muted body">Version · Revision · Issue and expiry dates</text><text x="355" y="898" class="muted body">Tags · Access · Visibility · Audit history</text>
  <rect x="650" y="760" width="300" height="170" rx="8" class="panel"/><text x="670" y="788" class="ink h2">Core Constitution</text><text x="670" y="820" class="green body">Protected and project-independent</text><text x="670" y="846" class="muted body">Identity · tenancy · navigation · states</text><text x="670" y="872" class="muted body">documents · approvals · audit · security</text><text x="670" y="898" class="muted body">May change only through a constitutional amendment.</text>
  <rect x="965" y="760" width="300" height="170" rx="8" class="panel"/><text x="985" y="788" class="ink h2">Project Additions</text><text x="985" y="820" class="blue body">HelioCoreOS Solar EPC Profile</text><text x="985" y="846" class="muted body">Opportunity · readiness · PV/BESS proposal</text><text x="985" y="872" class="muted body">survey · design · procurement · installation</text><text x="985" y="898" class="muted body">Every addition references the core it implements.</text>
  <rect x="1280" y="760" width="300" height="170" rx="8" class="panel"/><text x="1300" y="788" class="ink h2">Non-Negotiable Principles</text><text x="1300" y="820" class="muted body">Collect only what is needed</text><text x="1300" y="846" class="muted body">Always show location and next action</text><text x="1300" y="872" class="muted body">No silent failure or destructive overwrite</text><text x="1300" y="898" class="muted body">One source of truth and complete auditability</text>

  <text x="20" y="970" class="muted small">HelioCoreOS OS Blueprint v1.0 · Core constitution separated from project-specific additions · 29 July 2026</text>
</svg>